<svg viewBox="0 0 1440 800" fill="none" xmlns="http://www.w3.org/2000/svg">
  <!-- Grid lines -->
  <g opacity="0.3" stroke="#d1d5db">
    <!-- Vertical grid lines -->
    <line x1="0" y1="0" x2="0" y2="800" stroke-width="0.5" />
    <line x1="80" y1="0" x2="80" y2="800" stroke-width="0.5" />
    <line x1="160" y1="0" x2="160" y2="800" stroke-width="0.5" />
    <line x1="240" y1="0" x2="240" y2="800" stroke-width="0.5" />
    <line x1="320" y1="0" x2="320" y2="800" stroke-width="0.5" />
    <line x1="400" y1="0" x2="400" y2="800" stroke-width="0.5" />
    <line x1="480" y1="0" x2="480" y2="800" stroke-width="0.5" />
    <line x1="560" y1="0" x2="560" y2="800" stroke-width="0.5" />
    <line x1="640" y1="0" x2="640" y2="800" stroke-width="0.5" />
    <line x1="720" y1="0" x2="720" y2="800" stroke-width="0.5" />
    <line x1="800" y1="0" x2="800" y2="800" stroke-width="0.5" />
    <line x1="880" y1="0" x2="880" y2="800" stroke-width="0.5" />
    <line x1="960" y1="0" x2="960" y2="800" stroke-width="0.5" />
    <line x1="1040" y1="0" x2="1040" y2="800" stroke-width="0.5" />
    <line x1="1120" y1="0" x2="1120" y2="800" stroke-width="0.5" />
    <line x1="1200" y1="0" x2="1200" y2="800" stroke-width="0.5" />
    <line x1="1280" y1="0" x2="1280" y2="800" stroke-width="0.5" />
    <line x1="1360" y1="0" x2="1360" y2="800" stroke-width="0.5" />
    <line x1="1440" y1="0" x2="1440" y2="800" stroke-width="0.5" />
    
    <!-- Horizontal grid lines -->
    <line x1="0" y1="0" x2="1440" y2="0" stroke-width="0.5" />
    <line x1="0" y1="80" x2="1440" y2="80" stroke-width="0.5" />
    <line x1="0" y1="160" x2="1440" y2="160" stroke-width="0.5" />
    <line x1="0" y1="240" x2="1440" y2="240" stroke-width="0.5" />
    <line x1="0" y1="320" x2="1440" y2="320" stroke-width="0.5" />
    <line x1="0" y1="400" x2="1440" y2="400" stroke-width="0.5" />
    <line x1="0" y1="480" x2="1440" y2="480" stroke-width="0.5" />
    <line x1="0" y1="560" x2="1440" y2="560" stroke-width="0.5" />
    <line x1="0" y1="640" x2="1440" y2="640" stroke-width="0.5" />
    <line x1="0" y1="720" x2="1440" y2="720" stroke-width="0.5" />
    <line x1="0" y1="800" x2="1440" y2="800" stroke-width="0.5" />
  </g>

  <!-- Mathematical equations -->
  <g opacity="0.7" fill="#4338ca">
    <text x="120" y="100" font-family="'Caveat', cursive" font-size="20" transform="rotate(-10, 120, 100)">E = mc²</text>
    <text x="350" y="220" font-family="'Architects Daughter', cursive" font-size="18" transform="rotate(5, 350, 220)">F = ma</text>
    <text x="580" y="150" font-family="'Comic Neue', cursive" font-size="22" transform="rotate(-8, 580, 150)">∇ × E = -∂B/∂t</text>
    <text x="820" y="280" font-family="'Indie Flower', cursive" font-size="24" transform="rotate(12, 820, 280)">∫f(x)dx</text>
    <text x="1050" y="180" font-family="'Kalam', cursive" font-size="19" transform="rotate(-15, 1050, 180)">∑(1/n²)</text>
    <text x="200" y="350" font-family="'Neucha', cursive" font-size="21" transform="rotate(8, 200, 350)">y = mx + b</text>
    <text x="450" y="420" font-family="'Patrick Hand', cursive" font-size="23" transform="rotate(-5, 450, 420)">a² + b² = c²</text>
    <text x="700" y="380" font-family="'Permanent Marker', cursive" font-size="18" transform="rotate(10, 700, 380)">e^{iπ} + 1 = 0</text>
    <text x="950" y="450" font-family="'Shadows Into Light', cursive" font-size="20" transform="rotate(-12, 950, 450)">E = mc²</text>
    <text x="1200" y="320" font-family="'Caveat', cursive" font-size="22" transform="rotate(7, 1200, 320)">F = ma</text>
    <text x="150" y="520" font-family="'Architects Daughter', cursive" font-size="19" transform="rotate(-9, 150, 520)">∇ × E = -∂B/∂t</text>
    <text x="400" y="580" font-family="'Comic Neue', cursive" font-size="21" transform="rotate(6, 400, 580)">∫f(x)dx</text>
    <text x="650" y="500" font-family="'Indie Flower', cursive" font-size="23" transform="rotate(-7, 650, 500)">∑(1/n²)</text>
    <text x="900" y="620" font-family="'Kalam', cursive" font-size="20" transform="rotate(11, 900, 620)">y = mx + b</text>
    <text x="1150" y="550" font-family="'Neucha', cursive" font-size="18" transform="rotate(-14, 1150, 550)">a² + b² = c²</text>
    <text x="250" y="680" font-family="'Patrick Hand', cursive" font-size="22" transform="rotate(9, 250, 680)">e^{iπ} + 1 = 0</text>
    <text x="500" y="720" font-family="'Permanent Marker', cursive" font-size="19" transform="rotate(-6, 500, 720)">E = mc²</text>
    <text x="750" y="650" font-family="'Shadows Into Light', cursive" font-size="21" transform="rotate(13, 750, 650)">F = ma</text>
    <text x="1000" y="750" font-family="'Caveat', cursive" font-size="20" transform="rotate(-11, 1000, 750)">∇ × E = -∂B/∂t</text>
    <text x="1250" y="700" font-family="'Architects Daughter', cursive" font-size="18" transform="rotate(4, 1250, 700)">∫f(x)dx</text>
  </g>

  <!-- Code snippets -->
  <g opacity="0.7" fill="#0f766e">
    <text x="180" y="150" font-family="'Source Code Pro', monospace" font-size="16" transform="rotate(-5, 180, 150)">def fibonacci(n):</text>
    <text x="420" y="120" font-family="'Courier New', monospace" font-size="14" transform="rotate(8, 420, 120)">for i in range(10):</text>
    <text x="660" y="200" font-family="'Consolas', monospace" font-size="15" transform="rotate(-10, 660, 200)">x = np.linspace(0, 10)</text>
    <text x="900" y="130" font-family="'Source Code Pro', monospace" font-size="17" transform="rotate(6, 900, 130)">import matplotlib.pyplot</text>
    <text x="1140" y="220" font-family="'Courier New', monospace" font-size="14" transform="rotate(-7, 1140, 220)">class Node:</text>
    <text x="230" y="300" font-family="'Consolas', monospace" font-size="16" transform="rotate(9, 230, 300)">return x => x * x</text>
    <text x="470" y="250" font-family="'Source Code Pro', monospace" font-size="15" transform="rotate(-12, 470, 250)">useState&lt;number&gt;(0)</text>
    <text x="710" y="320" font-family="'Courier New', monospace" font-size="14" transform="rotate(7, 710, 320)">async function getData()</text>
    <text x="950" y="270" font-family="'Consolas', monospace" font-size="16" transform="rotate(-9, 950, 270)">const [x, y] = point</text>
    <text x="1190" y="330" font-family="'Source Code Pro', monospace" font-size="15" transform="rotate(11, 1190, 330)">export default function</text>
    <text x="280" y="450" font-family="'Courier New', monospace" font-size="14" transform="rotate(-6, 280, 450)">def fibonacci(n):</text>
    <text x="520" y="400" font-family="'Consolas', monospace" font-size="16" transform="rotate(10, 520, 400)">for i in range(10):</text>
    <text x="760" y="470" font-family="'Source Code Pro', monospace" font-size="15" transform="rotate(-8, 760, 470)">x = np.linspace(0, 10)</text>
    <text x="1000" y="420" font-family="'Courier New', monospace" font-size="14" transform="rotate(5, 1000, 420)">import matplotlib.pyplot</text>
    <text x="1240" y="480" font-family="'Consolas', monospace" font-size="16" transform="rotate(-11, 1240, 480)">class Node:</text>
  </g>

  <!-- Graphs -->
  <g opacity="0.7">
    <!-- Sine wave -->
    <path d="M 100 600 Q 125 550, 150 600 Q 175 650, 200 600" stroke="#5eead4" stroke-width="1.5" fill="none" transform="rotate(-10, 150, 600)" />
    
    <!-- Parabola -->
    <path d="M 350 550 Q 400 650, 450 550" stroke="#5eead4" stroke-width="1.5" fill="none" transform="rotate(8, 400, 550)" />
    
    <!-- Circle -->
    <circle cx="600" cy="580" r="30" stroke="#5eead4" stroke-width="1.5" fill="none" />
    
    <!-- Bar chart -->
    <g transform="translate(800, 600) rotate(-5)">
      <rect x="0" y="-40" width="15" height="40" fill="rgba(20, 184, 166, 0.5)" />
      <rect x="20" y="-25" width="15" height="25" fill="rgba(20, 184, 166, 0.6)" />
      <rect x="40" y="-50" width="15" height="50" fill="rgba(20, 184, 166, 0.4)" />
      <rect x="60" y="-35" width="15" height="35" fill="rgba(20, 184, 166, 0.7)" />
      <rect x="80" y="-20" width="15" height="20" fill="rgba(20, 184, 166, 0.5)" />
    </g>
    
    <!-- Sine wave -->
    <path d="M 1000 500 Q 1025 450, 1050 500 Q 1075 550, 1100 500" stroke="#5eead4" stroke-width="1.5" fill="none" transform="rotate(15, 1050, 500)" />
    
    <!-- Parabola -->
    <path d="M 1200 650 Q 1250 750, 1300 650" stroke="#5eead4" stroke-width="1.5" fill="none" transform="rotate(-12, 1250, 650)" />
    
    <!-- Circle -->
    <circle cx="1350" cy="550" r="25" stroke="#5eead4" stroke-width="1.5" fill="none" />
  </g>

  <!-- Subtle accent tint overlay -->
  <rect width="1440" height="800" fill="rgba(99, 102, 241, 0.03)" />
</svg>

